<svg  viewBox="0 0 20 33" fill="none" xmlns="http://www.w3.org/2000/svg">
<path d="M5.808 26.512V32H5.024V29.552H2.52V32H1.736V26.512H2.52V28.84H5.024V26.512H5.808ZM7.97888 26.24V26.936H7.19488V26.24H7.97888ZM7.96288 27.912V32H7.21088V27.912H7.96288ZM12.625 32H12.065C12.0277 31.8293 11.993 31.6427 11.961 31.44C11.657 31.8667 11.2357 32.08 10.697 32.08C10.185 32.08 9.77967 31.8907 9.481 31.512C9.18767 31.1333 9.041 30.6133 9.041 29.952V29.864C9.041 29.24 9.185 28.7467 9.473 28.384C9.76633 28.016 10.1743 27.832 10.697 27.832C11.2037 27.832 11.5957 28.032 11.873 28.432V26.24H12.625V32ZM10.833 28.432C10.4757 28.432 10.2117 28.5573 10.041 28.808C9.87567 29.0533 9.793 29.4373 9.793 29.96C9.793 30.4827 9.87833 30.8667 10.049 31.112C10.2197 31.3573 10.481 31.48 10.833 31.48C11.5317 31.48 11.881 30.9733 11.881 29.96C11.881 29.4373 11.793 29.0533 11.617 28.808C11.441 28.5573 11.1797 28.432 10.833 28.432ZM15.5931 27.832C15.9291 27.832 16.2251 27.904 16.4811 28.048C16.7424 28.1867 16.9451 28.3867 17.0891 28.648C17.2331 28.9093 17.3051 29.2133 17.3051 29.56V30.128H14.4491C14.4597 30.56 14.5611 30.8933 14.7531 31.128C14.9451 31.3627 15.2304 31.48 15.6091 31.48C15.9451 31.48 16.1931 31.3813 16.3531 31.184C16.5131 30.9867 16.5931 30.752 16.5931 30.48H17.3051C17.3051 30.8 17.2304 31.08 17.0811 31.32C16.9371 31.56 16.7344 31.7467 16.4731 31.88C16.2171 32.0133 15.9237 32.08 15.5931 32.08H15.5611C14.9851 32.08 14.5291 31.896 14.1931 31.528C13.8624 31.1547 13.6971 30.6587 13.6971 30.04V29.88C13.6971 29.4747 13.7717 29.1173 13.9211 28.808C14.0704 28.4987 14.2837 28.2587 14.5611 28.088C14.8384 27.9173 15.1637 27.832 15.5371 27.832H15.5931ZM15.5531 28.432C15.2491 28.432 15.0011 28.5253 14.8091 28.712C14.6224 28.8987 14.5077 29.176 14.4651 29.544H16.5611V29.448C16.5611 29.144 16.4677 28.8987 16.2811 28.712C16.0997 28.5253 15.8571 28.432 15.5531 28.432Z" fill="#8D4337"/>
<g clip-path="url(#clip0_0_1)">
<path d="M16.6988 14.0475C18.825 12.15 20 10 20 10C20 10 16.25 3.125 10 3.125C8.7995 3.12913 7.61258 3.37928 6.51251 3.86L7.47501 4.82375C8.28431 4.52894 9.1387 4.3771 10 4.375C12.65 4.375 14.8488 5.835 16.46 7.44625C17.2355 8.22586 17.9306 9.08141 18.535 10C18.4625 10.1087 18.3825 10.2288 18.2913 10.36C17.8725 10.96 17.2538 11.76 16.46 12.5538C16.2538 12.76 16.0388 12.9637 15.8138 13.1613L16.6988 14.0475Z" fill="#8D4337"/>
<path d="M14.1212 11.47C14.4002 10.6898 14.4518 9.84639 14.2702 9.03798C14.0886 8.22957 13.6811 7.48936 13.0952 6.90348C12.5093 6.3176 11.7691 5.91013 10.9607 5.72849C10.1523 5.54685 9.30893 5.59851 8.52874 5.87745L9.55749 6.9062C10.0379 6.83745 10.5277 6.88151 10.9881 7.03491C11.4485 7.18831 11.8668 7.44682 12.21 7.78997C12.5531 8.13312 12.8116 8.55147 12.965 9.01187C13.1184 9.47227 13.1625 9.96207 13.0937 10.4425L14.1212 11.47ZM10.4425 13.0937L11.47 14.1212C10.6898 14.4001 9.84642 14.4518 9.03801 14.2702C8.2296 14.0885 7.48939 13.6811 6.90351 13.0952C6.31763 12.5093 5.91016 11.7691 5.72852 10.9607C5.54688 10.1523 5.59854 9.3089 5.87749 8.5287L6.90624 9.55745C6.83748 10.0378 6.88154 10.5276 7.03494 10.988C7.18834 11.4484 7.44685 11.8668 7.79 12.2099C8.13315 12.5531 8.5515 12.8116 9.0119 12.965C9.4723 13.1184 9.9621 13.1625 10.4425 13.0937Z" fill="#8D4337"/>
<path d="M4.1875 6.83762C3.9625 7.03762 3.74625 7.24012 3.54 7.44637C2.76456 8.22598 2.0694 9.08153 1.465 10.0001L1.70875 10.3601C2.1275 10.9601 2.74625 11.7601 3.54 12.5539C5.15125 14.1651 7.35125 15.6251 10 15.6251C10.895 15.6251 11.7375 15.4589 12.525 15.1751L13.4875 16.1401C12.3874 16.6208 11.2005 16.8709 10 16.8751C3.75 16.8751 0 10.0001 0 10.0001C0 10.0001 1.17375 7.84887 3.30125 5.95262L4.18625 6.83887L4.1875 6.83762ZM17.0575 17.9426L2.0575 2.94262L2.9425 2.05762L17.9425 17.0576L17.0575 17.9426Z" fill="#8D4337"/>
</g>
<defs>
<clipPath id="clip0_0_1">
<rect width="20" height="20" fill="white"/>
</clipPath>
</defs>
</svg>
