<svg  viewBox="0 0 26 31" fill="none" xmlns="http://www.w3.org/2000/svg">
<path d="M3.072 23.512C3.55733 23.512 3.95467 23.6267 4.264 23.856C4.57867 24.0853 4.736 24.4 4.736 24.8C4.736 25.1573 4.64 25.4613 4.448 25.712C4.26133 25.9627 4.02933 26.1147 3.752 26.168V26.208C4.008 26.3093 4.21867 26.4853 4.384 26.736C4.54933 26.9867 4.632 27.288 4.632 27.64C4.632 27.9333 4.648 28.1547 4.68 28.304C4.712 28.4533 4.75467 28.5573 4.808 28.616C4.86133 28.6747 4.93867 28.72 5.04 28.752V28.976C4.92267 29.024 4.79733 29.048 4.664 29.048C4.408 29.048 4.208 28.9733 4.064 28.824C3.92 28.6693 3.848 28.3813 3.848 27.96C3.848 27.528 3.75733 27.192 3.576 26.952C3.4 26.7067 3.17867 26.584 2.912 26.584H1.52V29H0.736V23.512H3.072ZM1.52 24.224V25.872H3.08C3.30933 25.872 3.512 25.7947 3.688 25.64C3.864 25.4853 3.952 25.2933 3.952 25.064V25.032C3.952 24.7973 3.872 24.6053 3.712 24.456C3.552 24.3013 3.34133 24.224 3.08 24.224H1.52ZM7.6165 24.832C7.9525 24.832 8.2485 24.904 8.5045 25.048C8.76583 25.1867 8.9685 25.3867 9.1125 25.648C9.2565 25.9093 9.3285 26.2133 9.3285 26.56V27.128H6.4725C6.48317 27.56 6.5845 27.8933 6.7765 28.128C6.9685 28.3627 7.25383 28.48 7.6325 28.48C7.9685 28.48 8.2165 28.3813 8.3765 28.184C8.5365 27.9867 8.6165 27.752 8.6165 27.48H9.3285C9.3285 27.8 9.25383 28.08 9.1045 28.32C8.9605 28.56 8.75783 28.7467 8.4965 28.88C8.2405 29.0133 7.94717 29.08 7.6165 29.08H7.5845C7.0085 29.08 6.5525 28.896 6.2165 28.528C5.88583 28.1547 5.7205 27.6587 5.7205 27.04V26.88C5.7205 26.4747 5.79517 26.1173 5.9445 25.808C6.09383 25.4987 6.30717 25.2587 6.5845 25.088C6.86183 24.9173 7.18717 24.832 7.5605 24.832H7.6165ZM7.5765 25.432C7.2725 25.432 7.0245 25.5253 6.8325 25.712C6.64583 25.8987 6.53117 26.176 6.4885 26.544H8.5845V26.448C8.5845 26.144 8.49117 25.8987 8.3045 25.712C8.12317 25.5253 7.8805 25.432 7.5765 25.432ZM12.3498 24.832C12.8671 24.832 13.2725 25.0213 13.5658 25.4C13.8591 25.7787 14.0058 26.2987 14.0058 26.96V27.048C14.0058 27.6773 13.8591 28.1733 13.5658 28.536C13.2778 28.8987 12.8725 29.08 12.3498 29.08C11.8485 29.08 11.4565 28.88 11.1738 28.48V30.448H10.4218V24.912H10.9818C11.0191 25.0827 11.0538 25.2693 11.0858 25.472C11.3898 25.0453 11.8111 24.832 12.3498 24.832ZM12.2138 25.432C11.8511 25.432 11.5845 25.5573 11.4138 25.808C11.2485 26.0587 11.1658 26.44 11.1658 26.952C11.1658 27.4747 11.2511 27.8613 11.4218 28.112C11.5978 28.3573 11.8618 28.48 12.2138 28.48C12.5658 28.48 12.8271 28.3547 12.9978 28.104C13.1685 27.8533 13.2538 27.4693 13.2538 26.952C13.2538 26.4293 13.1658 26.0453 12.9898 25.8C12.8191 25.5547 12.5605 25.432 12.2138 25.432ZM16.7179 24.832C17.2885 24.832 17.7445 25.008 18.0859 25.36C18.4272 25.712 18.5979 26.1947 18.5979 26.808V27.104C18.5979 27.7173 18.4299 28.2 18.0939 28.552C17.7579 28.904 17.2992 29.08 16.7179 29.08C16.1365 29.08 15.6779 28.904 15.3419 28.552C15.0059 28.2 14.8379 27.7173 14.8379 27.104V26.808C14.8379 26.1947 15.0085 25.712 15.3499 25.36C15.6912 25.008 16.1472 24.832 16.7179 24.832ZM16.7179 25.432C16.3605 25.432 16.0832 25.5547 15.8859 25.8C15.6885 26.0453 15.5899 26.4053 15.5899 26.88V27.032C15.5899 27.496 15.6859 27.8533 15.8779 28.104C16.0752 28.3547 16.3552 28.48 16.7179 28.48C17.0699 28.48 17.3445 28.3573 17.5419 28.112C17.7445 27.8613 17.8459 27.5013 17.8459 27.032V26.88C17.8459 26.416 17.7472 26.0587 17.5499 25.808C17.3579 25.5573 17.0805 25.432 16.7179 25.432ZM21.5196 24.832C21.8983 24.832 22.1943 24.9547 22.4076 25.2C22.621 25.44 22.7276 25.744 22.7276 26.112L22.7036 26.416H22.0396V26.24C22.0396 26.08 21.9996 25.9387 21.9196 25.816C21.8396 25.6933 21.7383 25.6 21.6156 25.536C21.493 25.4667 21.3703 25.432 21.2476 25.432C20.9916 25.432 20.7916 25.5333 20.6476 25.736C20.5036 25.9387 20.4316 26.2133 20.4316 26.56V29H19.6796V24.912H20.2156L20.3276 25.52C20.3596 25.4133 20.4316 25.3067 20.5436 25.2C20.6556 25.0933 20.7943 25.0053 20.9596 24.936C21.1303 24.8667 21.317 24.832 21.5196 24.832ZM24.4815 24.912H25.4335V25.512H24.4815V27.952C24.4815 28.144 24.5188 28.2827 24.5935 28.368C24.6682 28.4533 24.7828 28.496 24.9375 28.496C25.0762 28.496 25.2415 28.456 25.4335 28.376V28.936C25.2415 29.032 24.9935 29.08 24.6895 29.08C24.3748 29.08 24.1348 28.9867 23.9695 28.8C23.8095 28.6133 23.7295 28.3173 23.7295 27.912V25.512H23.2815V24.912H23.7535L24.0095 23.608H24.4815V24.912Z" fill="#8D4337"/>
<g clip-path="url(#clip0_0_1)">
<path d="M12 15C10.1435 15 8.36301 14.2625 7.05025 12.9497C5.7375 11.637 5 9.85652 5 8C5 6.14348 5.7375 4.36301 7.05025 3.05025C8.36301 1.7375 10.1435 1 12 1C13.8565 1 15.637 1.7375 16.9497 3.05025C18.2625 4.36301 19 6.14348 19 8C19 9.85652 18.2625 11.637 16.9497 12.9497C15.637 14.2625 13.8565 15 12 15ZM12 16C14.1217 16 16.1566 15.1571 17.6569 13.6569C19.1571 12.1566 20 10.1217 20 8C20 5.87827 19.1571 3.84344 17.6569 2.34315C16.1566 0.842855 14.1217 0 12 0C9.87827 0 7.84344 0.842855 6.34315 2.34315C4.84285 3.84344 4 5.87827 4 8C4 10.1217 4.84285 12.1566 6.34315 13.6569C7.84344 15.1571 9.87827 16 12 16Z" fill="#8D4337"/>
<path d="M11.002 11C11.002 10.8687 11.0279 10.7386 11.0781 10.6173C11.1284 10.496 11.202 10.3857 11.2949 10.2929C11.3878 10.2 11.498 10.1264 11.6193 10.0761C11.7407 10.0259 11.8707 10 12.002 10C12.1333 10 12.2634 10.0259 12.3847 10.0761C12.506 10.1264 12.6163 10.2 12.7091 10.2929C12.802 10.3857 12.8756 10.496 12.9259 10.6173C12.9761 10.7386 13.002 10.8687 13.002 11C13.002 11.2652 12.8967 11.5196 12.7091 11.7071C12.5216 11.8946 12.2672 12 12.002 12C11.7368 12 11.4824 11.8946 11.2949 11.7071C11.1074 11.5196 11.002 11.2652 11.002 11ZM11.1 4.995C11.0867 4.86884 11.1001 4.74129 11.1392 4.62062C11.1784 4.49996 11.2425 4.38888 11.3273 4.29458C11.4122 4.20029 11.5159 4.12489 11.6318 4.07328C11.7477 4.02167 11.8732 3.995 12 3.995C12.1269 3.995 12.2523 4.02167 12.3682 4.07328C12.4841 4.12489 12.5878 4.20029 12.6727 4.29458C12.7576 4.38888 12.8217 4.49996 12.8608 4.62062C12.9 4.74129 12.9133 4.86884 12.9 4.995L12.55 8.502C12.5383 8.63977 12.4752 8.76811 12.3734 8.86163C12.2715 8.95515 12.1383 9.00705 12 9.00705C11.8617 9.00705 11.7285 8.95515 11.6267 8.86163C11.5248 8.76811 11.4618 8.63977 11.45 8.502L11.1 4.995Z" fill="#8D4337"/>
</g>
<defs>
<clipPath id="clip0_0_1">
<rect width="16" height="16" fill="white" transform="translate(4)"/>
</clipPath>
</defs>
</svg>
