<svg width="33" height="33" viewBox="0 0 33 33" fill="none" xmlns="http://www.w3.org/2000/svg">
<path d="M2.512 26.432C3.11467 26.432 3.58667 26.5653 3.928 26.832C4.27467 27.0987 4.448 27.4773 4.448 27.968V28.064H3.664V27.944C3.664 27.688 3.56 27.4907 3.352 27.352C3.144 27.2133 2.86933 27.144 2.528 27.144C2.14933 27.144 1.85333 27.208 1.64 27.336C1.432 27.4587 1.328 27.6373 1.328 27.872C1.328 28.048 1.38667 28.192 1.504 28.304C1.62667 28.416 1.776 28.504 1.952 28.568C2.13333 28.632 2.38133 28.704 2.696 28.784C3.10133 28.8907 3.42933 28.9947 3.68 29.096C3.93067 29.1973 4.144 29.3493 4.32 29.552C4.50133 29.7547 4.592 30.024 4.592 30.36C4.592 30.9573 4.408 31.3947 4.04 31.672C3.67733 31.944 3.16533 32.08 2.504 32.08C1.84267 32.08 1.328 31.9413 0.96 31.664C0.597333 31.3813 0.416 30.9733 0.416 30.44L0.424 30.28H1.208L1.2 30.448C1.2 30.7573 1.31467 30.9893 1.544 31.144C1.77867 31.2933 2.10133 31.368 2.512 31.368C2.912 31.368 3.22667 31.296 3.456 31.152C3.69067 31.0027 3.808 30.8 3.808 30.544C3.808 30.3413 3.744 30.1787 3.616 30.056C3.49333 29.928 3.336 29.8293 3.144 29.76C2.95733 29.6907 2.70133 29.6133 2.376 29.528C1.976 29.4213 1.656 29.32 1.416 29.224C1.176 29.128 0.970667 28.9813 0.8 28.784C0.629333 28.5813 0.544 28.3173 0.544 27.992C0.544 27.464 0.722667 27.072 1.08 26.816C1.43733 26.56 1.91467 26.432 2.512 26.432ZM6.43163 28.424C6.76763 28.0293 7.18896 27.832 7.69563 27.832C8.14363 27.832 8.49563 27.952 8.75163 28.192C9.00763 28.432 9.13563 28.784 9.13563 29.248V32H8.38363V29.384C8.38363 28.7493 8.09563 28.432 7.51963 28.432C7.32763 28.432 7.14896 28.4827 6.98363 28.584C6.81829 28.6853 6.68496 28.824 6.58363 29C6.48229 29.1707 6.43163 29.36 6.43163 29.568V32H5.67963V26.24H6.43163V28.424ZM12.0538 27.832C12.6245 27.832 13.0805 28.008 13.4218 28.36C13.7631 28.712 13.9338 29.1947 13.9338 29.808V30.104C13.9338 30.7173 13.7658 31.2 13.4298 31.552C13.0938 31.904 12.6351 32.08 12.0538 32.08C11.4725 32.08 11.0138 31.904 10.6778 31.552C10.3418 31.2 10.1738 30.7173 10.1738 30.104V29.808C10.1738 29.1947 10.3445 28.712 10.6858 28.36C11.0271 28.008 11.4831 27.832 12.0538 27.832ZM12.0538 28.432C11.6965 28.432 11.4191 28.5547 11.2218 28.8C11.0245 29.0453 10.9258 29.4053 10.9258 29.88V30.032C10.9258 30.496 11.0218 30.8533 11.2138 31.104C11.4111 31.3547 11.6911 31.48 12.0538 31.48C12.4058 31.48 12.6805 31.3573 12.8778 31.112C13.0805 30.8613 13.1818 30.5013 13.1818 30.032V29.88C13.1818 29.416 13.0831 29.0587 12.8858 28.808C12.6938 28.5573 12.4165 28.432 12.0538 28.432ZM16.8556 27.832C17.2342 27.832 17.5302 27.9547 17.7436 28.2C17.9569 28.44 18.0636 28.744 18.0636 29.112L18.0396 29.416H17.3756V29.24C17.3756 29.08 17.3356 28.9387 17.2556 28.816C17.1756 28.6933 17.0742 28.6 16.9516 28.536C16.8289 28.4667 16.7062 28.432 16.5836 28.432C16.3276 28.432 16.1276 28.5333 15.9836 28.736C15.8396 28.9387 15.7676 29.2133 15.7676 29.56V32H15.0156V27.912H15.5516L15.6636 28.52C15.6956 28.4133 15.7676 28.3067 15.8796 28.2C15.9916 28.0933 16.1302 28.0053 16.2956 27.936C16.4662 27.8667 16.6529 27.832 16.8556 27.832ZM19.8174 27.912H20.7694V28.512H19.8174V30.952C19.8174 31.144 19.8548 31.2827 19.9294 31.368C20.0041 31.4533 20.1188 31.496 20.2734 31.496C20.4121 31.496 20.5774 31.456 20.7694 31.376V31.936C20.5774 32.032 20.3294 32.08 20.0254 32.08C19.7108 32.08 19.4708 31.9867 19.3054 31.8C19.1454 31.6133 19.0654 31.3173 19.0654 30.912V28.512H18.6174V27.912H19.0894L19.3454 26.608H19.8174V27.912ZM22.4871 26.24V32H21.7351V26.24H22.4871ZM24.6117 26.24V26.936H23.8277V26.24H24.6117ZM24.5957 27.912V32H23.8437V27.912H24.5957ZM27.4818 27.832C27.7858 27.832 28.0551 27.88 28.2898 27.976C28.5298 28.072 28.7138 28.2053 28.8418 28.376C28.9751 28.5467 29.0418 28.736 29.0418 28.944L29.0338 29.088H28.2898V29.016C28.2898 28.6267 27.9885 28.432 27.3858 28.432C26.7885 28.432 26.4898 28.6107 26.4898 28.968C26.4898 29.1333 26.5751 29.256 26.7458 29.336C26.9165 29.4107 27.1778 29.4827 27.5298 29.552C27.8658 29.6213 28.1405 29.6933 28.3538 29.768C28.5725 29.8427 28.7565 29.96 28.9058 30.12C29.0605 30.28 29.1378 30.496 29.1378 30.768C29.1378 31.2053 28.9885 31.5333 28.6898 31.752C28.3911 31.9707 27.9618 32.08 27.4018 32.08H27.2818C26.9458 32.08 26.6525 32.0293 26.4018 31.928C26.1511 31.8213 25.9565 31.68 25.8178 31.504C25.6845 31.3227 25.6205 31.12 25.6258 30.896V30.72H26.3698V30.8C26.3698 31.2533 26.7511 31.48 27.5138 31.48C27.7378 31.48 27.9378 31.4293 28.1138 31.328C28.2951 31.2267 28.3858 31.088 28.3858 30.912C28.3858 30.7627 28.3351 30.6453 28.2338 30.56C28.1378 30.4747 28.0178 30.4107 27.8738 30.368C27.7298 30.3253 27.5298 30.2827 27.2738 30.24C26.9431 30.176 26.6765 30.112 26.4738 30.048C26.2711 29.9787 26.0978 29.864 25.9538 29.704C25.8098 29.544 25.7378 29.3253 25.7378 29.048C25.7378 28.6693 25.8871 28.3733 26.1858 28.16C26.4845 27.9413 26.8925 27.832 27.4098 27.832H27.4818ZM31.0753 27.912H32.0273V28.512H31.0753V30.952C31.0753 31.144 31.1126 31.2827 31.1873 31.368C31.2619 31.4533 31.3766 31.496 31.5312 31.496C31.6699 31.496 31.8353 31.456 32.0273 31.376V31.936C31.8353 32.032 31.5873 32.08 31.2833 32.08C30.9686 32.08 30.7286 31.9867 30.5633 31.8C30.4033 31.6133 30.3233 31.3173 30.3233 30.912V28.512H29.8753V27.912H30.3473L30.6033 26.608H31.0753V27.912Z" fill="#8D4337"/>
<path d="M6 20.3438C5.99991 20.4577 6.03232 20.5697 6.09405 20.6688C6.15577 20.7678 6.24469 20.8505 6.35203 20.9086C6.45938 20.9668 6.58146 20.9984 6.70625 21.0004C6.83105 21.0024 6.95425 20.9746 7.06375 20.9199L14.625 17.1531L22.1863 20.9199C22.2957 20.9746 22.419 21.0024 22.5437 21.0004C22.6685 20.9984 22.7906 20.9668 22.898 20.9086C23.0053 20.8505 23.0942 20.7678 23.156 20.6688C23.2177 20.5697 23.2501 20.4577 23.25 20.3438V2.625C23.25 1.92881 22.9471 1.26113 22.4079 0.768845C21.8688 0.276562 21.1375 0 20.375 0L8.875 0C8.1125 0 7.38124 0.276562 6.84207 0.768845C6.3029 1.26113 6 1.92881 6 2.625V20.3438ZM14.625 5.78813C16.6188 3.91781 21.6026 7.1925 14.625 11.4017C7.64738 7.1925 12.6312 3.91913 14.625 5.79075V5.78813Z" fill="#8D4337"/>
</svg>
